<?xml version="1.0" standalone="no"?>
<!DOCTYPE svg PUBLIC "-//W3C//DTD SVG 20010904//EN"
 "http://www.w3.org/TR/2001/REC-SVG-20010904/DTD/svg10.dtd">
<svg version="1.0" xmlns="http://www.w3.org/2000/svg"
 width="1300.000000pt" height="360.000000pt" viewBox="0 0 1300.000000 360.000000"
 preserveAspectRatio="xMidYMid meet">

<g transform="translate(0.000000,360.000000) scale(0.100000,-0.100000)"
fill="#000000" stroke="none">
<path d="M1330 3159 c-382 -20 -493 -37 -550 -85 -41 -35 -48 -52 -170 -371
-58 -150 -108 -273 -111 -273 -4 0 -10 14 -14 31 -4 17 -26 51 -49 75 l-43 44
-121 0 c-131 0 -164 -8 -181 -47 -14 -31 -14 -105 0 -136 18 -39 50 -47 182
-47 112 0 126 2 166 25 24 14 46 23 48 21 10 -9 -62 -87 -116 -128 -82 -60
-130 -108 -154 -153 -21 -38 -22 -55 -25 -328 l-3 -287 1598 2 1598 3 0 200
c0 156 -5 217 -18 277 -32 139 -95 234 -204 310 -38 26 -98 97 -89 105 2 2 23
-8 47 -22 41 -23 53 -25 176 -25 125 0 133 1 160 24 24 21 27 31 28 84 0 46
-5 67 -21 89 -21 28 -22 28 -147 31 -98 2 -134 -1 -156 -13 -35 -17 -67 -59
-85 -112 -14 -38 -14 -38 -24 -13 -5 14 -33 84 -62 155 -29 72 -75 190 -102
264 -27 74 -56 147 -63 162 -22 42 -83 87 -134 98 -177 40 -939 63 -1361 40z
m1000 -195 c168 -9 329 -20 359 -26 l53 -10 55 -116 c30 -65 86 -182 124 -262
38 -80 69 -148 69 -151 0 -12 -1219 -21 -1814 -13 l-604 7 40 86 c21 47 78
165 126 261 77 155 91 177 122 192 39 18 280 35 680 48 256 8 362 6 790 -16z
m844 -993 c25 -23 26 -30 26 -122 0 -89 -2 -100 -24 -126 l-24 -28 -229 -3
c-256 -4 -285 -1 -319 33 -22 22 -24 33 -24 110 0 94 15 140 53 155 12 5 133
8 269 7 246 -2 247 -2 272 -26z m-2225 -7 c31 -26 31 -27 31 -123 0 -90 -2
-100 -25 -125 l-24 -26 -259 0 -259 0 -27 26 c-24 25 -26 32 -26 121 0 91 1
96 29 124 l29 29 250 0 250 0 31 -26z"/>
<path d="M5020 3059 c-400 -46 -710 -329 -816 -746 -43 -170 -49 -415 -14
-592 65 -327 283 -601 578 -725 115 -49 240 -70 407 -70 123 0 166 5 240 23
178 46 307 121 429 252 119 128 201 312 222 498 l7 61 -220 0 -220 0 -17 -79
c-40 -189 -144 -309 -310 -358 -78 -23 -230 -20 -310 7 -242 80 -376 312 -376
655 0 141 11 222 46 327 68 206 221 341 420 370 68 10 94 9 161 -4 184 -36
300 -132 355 -293 l17 -50 219 -3 219 -2 -8 51 c-50 316 -290 573 -609 655
-131 33 -266 40 -420 23z"/>
<path d="M7330 3007 c0 -7 11 -47 25 -88 21 -59 568 -1744 619 -1904 l13 -40
255 -3 255 -2 339 1022 340 1023 -230 3 c-126 1 -231 1 -233 -2 -2 -2 -78
-235 -169 -517 -91 -283 -195 -606 -231 -719 l-66 -205 -19 60 c-10 33 -112
357 -227 720 l-209 660 -231 3 c-188 2 -231 0 -231 -11z"/>
<path d="M9870 3014 c-224 -40 -373 -130 -484 -295 -72 -107 -126 -297 -126
-445 l0 -64 194 0 194 0 7 63 c13 118 35 194 75 255 64 99 131 137 245 136
152 0 260 -92 284 -241 12 -79 -1 -173 -34 -228 -54 -93 -84 -117 -533 -432
-173 -122 -326 -277 -385 -391 -52 -101 -77 -192 -92 -339 l-7 -63 741 0 741
0 0 175 0 175 -475 2 -476 3 51 57 c66 74 200 180 385 306 241 163 333 245
407 362 98 154 121 378 58 557 -27 77 -99 182 -169 244 -63 56 -186 121 -276
145 -58 15 -273 27 -325 18z"/>
<path d="M10796 3008 c10 -17 489 -726 580 -858 l72 -105 -352 -525 c-194
-289 -356 -531 -360 -538 -6 -9 46 -12 247 -12 l255 0 224 350 c122 192 227
348 231 347 5 -1 106 -158 226 -347 l217 -345 272 -3 272 -2 -359 537 c-306
457 -358 540 -347 553 7 8 156 228 330 488 l317 472 -249 0 -248 0 -203 -320
c-112 -177 -208 -319 -213 -318 -5 2 -96 146 -201 320 l-192 317 -263 1 c-208
0 -262 -3 -256 -12z"/>
<path d="M6330 1755 l0 -175 435 0 435 0 0 175 0 175 -435 0 -435 0 0 -175z"/>
<path d="M150 1393 c0 -44 28 -110 56 -135 11 -10 36 -24 57 -33 l37 -15 0
-128 c0 -70 5 -145 10 -166 16 -69 18 -70 220 -67 109 1 191 6 206 13 28 13
31 23 42 133 l7 80 1002 3 1002 2 5 -32 c3 -18 7 -62 10 -97 7 -94 8 -95 194
-102 86 -3 174 -2 195 2 69 12 72 20 75 198 l3 159 54 26 c29 15 60 37 69 51
20 30 38 109 30 129 -6 14 -170 16 -1640 16 l-1634 0 0 -37z"/>
</g>
</svg>
