<svg width="52" height="60" viewBox="0 0 52 60" fill="none" xmlns="http://www.w3.org/2000/svg">
<g clip-path="url(#clip0_1_25)">
<g filter="url(#filter0_f_1_25)">
<path d="M26 56C29.866 56 33 54.8807 33 53.5C33 52.1193 29.866 51 26 51C22.134 51 19 52.1193 19 53.5C19 54.8807 22.134 56 26 56Z" fill="black" fill-opacity="0.2"/>
</g>
<g filter="url(#filter1_d_1_25)">
<path fill-rule="evenodd" clip-rule="evenodd" d="M26 4C37.598 4 47 13.402 47 25C47 33.8926 41.4727 41.4942 33.6663 44.5567L27.1961 53.4007C27.0612 53.5858 26.8821 53.7369 26.6739 53.8412C26.4657 53.9455 26.2346 54 26 54C25.7654 54 25.5343 53.9455 25.3261 53.8412C25.1179 53.7369 24.9388 53.5858 24.8039 53.4007L18.3337 44.5567C10.5273 41.4941 5 33.8926 5 25C5 13.402 14.402 4 26 4Z" fill="white"/>
</g>
<path d="M43 25C43 15.6112 35.3888 8 26 8C16.6112 8 9 15.6112 9 25C9 34.3888 16.6112 42 26 42C35.3888 42 43 34.3888 43 25Z" fill="#DF1E1B"/>
<mask id="mask0_1_25" style="mask-type:luminance" maskUnits="userSpaceOnUse" x="14" y="13" width="24" height="24">
<path d="M38 13H14V37H38V13Z" fill="white"/>
</mask>
<g mask="url(#mask0_1_25)">
<path d="M32.92 19.01C32.72 18.42 32.16 18 31.5 18H20.5C19.84 18 19.29 18.42 19.08 19.01L17.11 24.68C17.04 24.89 17 25.11 17 25.34V32.5C17 33.33 17.67 34 18.5 34C19.33 34 20 33.33 20 32.5V32H32V32.5C32 33.32 32.67 34 33.5 34C34.32 34 35 33.33 35 32.5V25.34C35 25.12 34.96 24.89 34.89 24.68L32.92 19.01ZM20.5 29C19.67 29 19 28.33 19 27.5C19 26.67 19.67 26 20.5 26C21.33 26 22 26.67 22 27.5C22 28.33 21.33 29 20.5 29ZM31.5 29C30.67 29 30 28.33 30 27.5C30 26.67 30.67 26 31.5 26C32.33 26 33 26.67 33 27.5C33 28.33 32.33 29 31.5 29ZM19 24L20.27 20.18C20.41 19.78 20.79 19.5 21.22 19.5H30.78C31.21 19.5 31.59 19.78 31.73 20.18L33 24H19Z" fill="white"/>
</g>
</g>
<defs>
<filter id="filter0_f_1_25" x="17" y="49" width="18" height="9" filterUnits="userSpaceOnUse" color-interpolation-filters="sRGB">
<feFlood flood-opacity="0" result="BackgroundImageFix"/>
<feBlend mode="normal" in="SourceGraphic" in2="BackgroundImageFix" result="shape"/>
<feGaussianBlur stdDeviation="1" result="effect1_foregroundBlur_1_25"/>
</filter>
<filter id="filter1_d_1_25" x="0" y="0" width="52" height="60" filterUnits="userSpaceOnUse" color-interpolation-filters="sRGB">
<feFlood flood-opacity="0" result="BackgroundImageFix"/>
<feColorMatrix in="SourceAlpha" type="matrix" values="0 0 0 0 0 0 0 0 0 0 0 0 0 0 0 0 0 0 127 0" result="hardAlpha"/>
<feOffset dy="1"/>
<feGaussianBlur stdDeviation="2.5"/>
<feComposite in2="hardAlpha" operator="out"/>
<feColorMatrix type="matrix" values="0 0 0 0 0 0 0 0 0 0 0 0 0 0 0 0 0 0 0.1 0"/>
<feBlend mode="normal" in2="BackgroundImageFix" result="effect1_dropShadow_1_25"/>
<feBlend mode="normal" in="SourceGraphic" in2="effect1_dropShadow_1_25" result="shape"/>
</filter>
<clipPath id="clip0_1_25">
<rect width="52" height="60" fill="white"/>
</clipPath>
</defs>
</svg>
